<?xml version="1.0" encoding="utf-8"?>
<!-- Generator: Adobe Illustrator 24.0.1, SVG Export Plug-In . SVG Version: 6.00 Build 0)  -->
<svg version="1.1" id="Layer_1" xmlns="http://www.w3.org/2000/svg" xmlns:xlink="http://www.w3.org/1999/xlink" x="0px" y="0px"
	 viewBox="0 0 91.1 91.1" style="enable-background:new 0 0 91.1 91.1;" xml:space="preserve">
<style type="text/css">
	.st0{fill:#00000;}
	.st1{fill:none;}
</style>
<g>
	<title>consulting</title>
	<path class="st0" d="M90.9,46.1c-0.4-3.2-2.8-5.9-6-6.5v-0.2c0-9.8-3.6-19.3-10.2-26.5c0,0-0.1,0-0.1-0.1c-1.4-1.6-3-3-4.6-4.3
		C63.1,3,54.4,0,45.5,0C23.8,0,6.1,17.7,6.1,39.4v0.2C2.5,40.3,0,43.4,0,47v9.1c0,4.2,3.4,7.6,7.6,7.6h4.6c0,3.4,2.7,6.1,6.1,6.1
		h4.5c0.8,0,1.5-0.7,1.5-1.5v-6.1c0-0.1,0-0.2,0-0.2v-5.5c0-0.1,0-0.2,0-0.2V34.9c0-0.8-0.7-1.5-1.5-1.5h-4.5
		c-0.9,0-1.7,0.2-2.5,0.6C18.7,17.5,34.5,6.6,51,9.6c12.4,2.3,22.1,12,24.4,24.4c-0.8-0.4-1.6-0.6-2.5-0.6h-4.6
		c-0.8,0-1.5,0.7-1.5,1.5v33.3c0,0.8,0.7,1.5,1.5,1.5h4.6c3.4,0,6.1-2.7,6.1-6.1h1.5v6.1c0,7.5-6.1,13.6-13.7,13.6h-3.2
		c-0.7-2.7-3.1-4.5-5.9-4.5h-6.1c-3.4,0-6.1,2.7-6.1,6.1c0,3.4,2.7,6.1,6.1,6.1c0,0,0,0,0,0h6.1c2.8,0,5.2-1.9,5.9-4.5h3.2
		c9.2,0,16.7-7.5,16.7-16.7v-6.1c4,0,7.2-3.1,7.6-7h0v-0.6v-3v-7H90.9z M57.7,88.1h-6.1c-1.7,0-3-1.4-3-3c0-1.7,1.4-3,3-3h6.1
		c1.7,0,3,1.4,3,3C60.7,86.7,59.3,88.1,57.7,88.1z M12.1,50.1c0,0.1,0,0.2,0,0.2v5.6c0,0.1,0,0.2,0,0.2v4.6H7.6
		c-2.5,0-4.6-2-4.5-4.6V47c0-2.5,2-4.6,4.5-4.6h4.6V50.1z M18.2,36.4h3v19.7c0,0.1,0,0.2,0,0.3v5.4c0,0.1,0,0.2,0,0.3v4.6h-3
		c-1.7,0-3-1.3-3-3v-7.6c0-0.1,0-0.2,0-0.3v-5.4c0-0.1,0-0.2,0-0.3V39.4C15.2,37.8,16.6,36.4,18.2,36.4z M75.9,63.7c0,1.7-1.3,3-3,3
		h-3V36.4h3c1.7,0,3,1.3,3,3V63.7z M45.5,6.1C45.5,6.1,45.5,6.1,45.5,6.1C27.1,6.1,12.2,21,12.1,39.4h-3C9.2,19.4,25.4,3.1,45.5,3
		c8.2,0,16.2,2.8,22.6,7.9c1,0.7,2.7,2.5,4.3,4c6.1,6.7,9.5,15.5,9.5,24.5h-3C78.9,21,64,6.1,45.5,6.1z M83.5,60.7
		C83.5,60.7,83.5,60.7,83.5,60.7l-4.6,0V42.5h4.5c2.3,0,4.2,1.7,4.5,4v10.3h0C87.7,59,85.8,60.7,83.5,60.7z"/>
	<g>
		<path class="st1" d="M45.5,39.3c-7.1,0-12.8,5.7-12.9,12.8S38.4,65,45.5,65c0,0,0,0,0,0c7.1,0,12.8-5.7,12.8-12.8
			C58.3,45.1,52.6,39.4,45.5,39.3z M45.5,57.3c-0.7,0-1.2-0.5-1.2-1.2c0-0.7,0.5-1.2,1.2-1.2c0,0,0,0,0,0c0.6,0,1.2,0.5,1.2,1.2
			c0,0,0,0,0,0C46.6,56.8,46.1,57.3,45.5,57.3z M49.6,53.4c-0.4,0.4-1,0.5-1.5,0.2c-0.4-0.4-0.8-0.7-1.3-0.8
			c-0.4-0.2-0.9-0.2-1.3-0.2c-1,0-1.9,0.4-2.6,1.1c-0.5,0.3-1.2,0.2-1.6-0.3c-0.2-0.4-0.2-0.8,0-1.2c1.1-1.1,2.6-1.7,4.1-1.7
			c1.6,0,3,0.6,4.1,1.7C49.9,52.6,49.8,53.1,49.6,53.4z M52.7,50.4c-0.4,0.5-1,0.6-1.5,0.2c-0.8-0.8-1.7-1.4-2.8-1.8
			c-3-1.1-6.3-0.4-8.5,1.8c0,0-0.1,0.1-0.1,0.1c-0.4,0.4-1.1,0.4-1.5-0.1c-0.4-0.4-0.4-1.1,0.1-1.5c1.9-1.9,4.5-3,7.2-3
			c2.7,0,5.3,1.1,7.2,3C53,49.5,53,50.1,52.7,50.4z"/>
		<path class="st0" d="M45.5,36.3c-8.7,0-15.8,7.1-15.8,15.8c0,8.7,7.1,15.8,15.8,15.8c8.7,0,15.8-7.1,15.9-15.8c0,0,0,0,0,0
			C61.3,43.4,54.2,36.3,45.5,36.3z M45.5,65C45.5,65,45.5,65,45.5,65c-7.1,0-12.8-5.8-12.8-12.9s5.8-12.8,12.9-12.8
			c7.1,0,12.8,5.8,12.8,12.8C58.3,59.2,52.6,65,45.5,65z"/>
		<path class="st0" d="M45.5,50.4c-1.6,0-3,0.6-4.1,1.7c-0.2,0.4-0.3,0.8,0,1.2c0.4,0.5,1,0.6,1.6,0.3c0.7-0.7,1.6-1.1,2.6-1.1
			c0.4,0,0.9,0.1,1.3,0.2c0.5,0.2,0.9,0.5,1.3,0.8c0.5,0.3,1.1,0.2,1.5-0.2c0.3-0.4,0.3-0.9,0.1-1.3C48.5,51.1,47.1,50.4,45.5,50.4z
			"/>
		<path class="st0" d="M45.5,46.1c-2.7,0-5.3,1.1-7.2,3c-0.4,0.4-0.5,1.1-0.1,1.5c0.4,0.4,1.1,0.5,1.5,0.1c0,0,0.1-0.1,0.1-0.1
			c2.2-2.2,5.6-3,8.5-1.8c1,0.4,2,1,2.8,1.8c0.5,0.3,1.2,0.2,1.5-0.2c0.3-0.4,0.3-0.9,0-1.3C50.8,47.2,48.2,46.1,45.5,46.1z"/>
		<path class="st0" d="M45.5,54.9C45.5,54.9,45.5,54.9,45.5,54.9c-0.7,0-1.2,0.5-1.2,1.2c0,0.7,0.5,1.2,1.2,1.2
			c0.7,0,1.2-0.5,1.2-1.2c0,0,0,0,0,0C46.6,55.5,46.1,54.9,45.5,54.9z"/>
	</g>
</g>
</svg>
