<?xml version="1.0" encoding="utf-8"?>
<!-- Generator: Adobe Illustrator 24.3.0, SVG Export Plug-In . SVG Version: 6.00 Build 0)  -->
<svg version="1.1" id="Layer_1" xmlns="http://www.w3.org/2000/svg" xmlns:xlink="http://www.w3.org/1999/xlink" x="0px" y="0px"
	 viewBox="0 0 15258.24 4793.51" style="enable-background:new 0 0 15258.24 4793.51;" xml:space="preserve">
<style type="text/css">
	.st0{fill:#FFFFFF;}
	.st1{fill:#1F3C58;}
	.st2{fill:#A8843A;}
</style>
<g>
	<path class="st0" d="M14475.47,4682.32H782.77c-385.58,0-698.15-312.57-698.15-698.15V809.34c0-385.58,312.57-698.15,698.15-698.15
		h13692.7c385.58,0,698.15,312.57,698.15,698.15v3174.83C15173.62,4369.75,14861.04,4682.32,14475.47,4682.32z"/>
	<g>
		<g>
			<g>
				<path class="st1" d="M5784.54,3666.15c0-97.44,0-192.22,0-293.58c42.65,0,84.23,1.64,125.63-0.35
					c79.81-3.84,158.96-13.47,235.06-39.58c137.2-47.08,214.45-153.75,212.24-295.82c-8.35,0-16.8,0.12-25.25-0.02
					c-75.38-1.23-150.89-0.25-226.12-4.35c-89.09-4.86-172.12-31.7-247.73-80.19c-107.86-69.18-163.76-171.49-182.54-294.63
					c-16.76-109.87-9.88-218.86,28.52-324.62c75.58-208.2,280.28-339.58,501.13-324.78c132.33,8.87,244.75,54.63,327.82,161.12
					c53.41,68.47,84.25,147.61,96.82,232.53c9.93,67.1,13.73,135.23,17.55,203.06c2.59,45.91,0.49,92.08,0.49,138.73
					c5.75,1.11,9.93,2.63,14.09,2.61c126.68-0.58,253.39,0.17,380-3.04c31.98-0.81,64.85-11.19,95.18-22.76
					c51.87-19.79,69.68-63.36,69.71-115.92c0.08-116.44,0.04-232.89,0.04-349.33c0-8.63,0-17.27,0-27.32c96.92,0,191.68,0,289.05,0
					c0,8.71,0,16.52,0,24.32c0,113.51,2.63,227.11-0.79,340.52c-3,99.47,78.4,147.21,143.98,151.2c26.29,1.6,52.67,2.5,79,2.41
					c146.46-0.53,292.93-0.37,439.36-2.77c61.55-1.01,122.58-10.47,179.96-34.9c52.88-22.51,93.89-56.63,106.84-116.18
					c8.22-37.79,0.08-74.31-18.31-105.98c-44.38-76.41-87.25-154.53-139.9-225.12c-99.75-133.74-206.14-262.53-308.98-394
					c-6.54-8.36-10.46-22.82-8.52-33.1c12.93-68.22,27.37-136.16,42.56-203.92c1.85-8.27,9.54-18.09,17.16-21.8
					c329.38-160.45,659.05-320.3,988.7-480.19c3.79-1.84,7.78-3.27,13.46-5.64c39.49,88.2,78.54,175.42,118.64,264.97
					c-296.5,137.16-592.13,273.91-888.95,411.22c2.62,4.76,3.94,8.03,5.99,10.75c178.89,237.37,356.82,475.47,537.59,711.4
					c38.43,50.15,84.42,95.53,131.88,137.5c69.42,61.39,153.13,88.67,246.44,88.13c161.84-0.93,323.78-3.41,485.53,0.68
					c145.66,3.69,193.33-92.87,183.14-206.34c-11.61-129.29-39.8-255.59-70.11-381.48c-1.69-7.03-3.19-14.11-5.34-23.65
					c90.7-27.45,180.57-54.64,273.53-82.77c10.4,45.25,22.8,88.79,30.15,133.17c18.48,111.76,38.4,223.49,50.75,335.99
					c12.16,110.8-6.79,217.92-68.56,313.53c-87.11,134.82-215.94,196.89-372.43,200.1c-176.42,3.61-352.98,1.32-529.47,0.7
					c-174.67-0.62-324.92-59.52-444.73-189.53c-22.3-24.2-45.38-47.67-68.15-71.43c-0.35-0.37-1.3-0.16-1.97-0.23
					c-0.68,0.26-1.79,0.33-2,0.8c-57.97,129.05-169.51,188.27-296.57,226.6c-82.62,24.92-167.76,33.75-253.68,34.12
					c-142.07,0.61-284.16,0.65-426.22-0.46c-85.82-0.67-169.19-15.06-245.19-57.72c-24.04-13.49-45.99-30.68-70.49-47.25
					c-52.82,42.94-113.68,73.47-181.46,85.57c-56.67,10.12-114.46,17.27-171.94,18.83c-107.58,2.92-215.29,0.84-322.94,0.84
					c-7.98,0-15.95,0-26.48,0c-2.25,25.75-4.03,50.23-6.58,74.64c-27.84,266.82-185.33,423.7-430.8,503.43
					C6073.09,3659.47,5930.43,3665.98,5784.54,3666.15z M6359.11,2745.2c0-9.33,0.06-15.83-0.01-22.33
					c-0.72-62.13,1.17-124.44-3.15-186.32c-2.72-38.85-10.89-78.37-23.45-115.25c-26.71-78.4-85.38-120.92-161.08-123.15
					c-90.18-2.65-165.18,38.46-194.28,114.72c-15.06,39.47-22.8,83.26-25.45,125.63c-6.28,100.64,49.07,172.43,146.79,197.13
					c19,4.8,38.76,8.82,58.24,9.15C6223.07,2745.89,6289.45,2745.2,6359.11,2745.2z"/>
				<path class="st1" d="M7072.34,1686.23c71.54-68.98,142.04-136.96,210.43-202.9c66.36,66.43,136.92,137.05,205.58,205.78
					c-66.48,66.48-136.63,136.64-203.23,203.25C7216.35,1825.74,7144.97,1756.58,7072.34,1686.23z"/>
				<path class="st1" d="M9928.77,1425.67c67.29,67.6,132.71,133.33,196.68,197.6c-63.81,63.65-128.9,128.59-191.42,190.95
					c-63.37-61.34-129.35-125.21-196.59-190.29C9801.87,1557.17,9865.28,1491.46,9928.77,1425.67z"/>
				<path class="st1" d="M9244.54,1626.56c65.79-68.59,129-134.48,190.92-199.04c66.96,66.95,133.02,133,199.05,199.02
					c-64.1,62.87-129.73,127.25-193.27,189.57C9377.97,1755.13,9312.21,1691.77,9244.54,1626.56z"/>
			</g>
			<g>
				<path class="st2" d="M2025.34,2766.38c-9.98-12.37-15.85-20.25-22.33-27.59c-82.5-93.43-118.71-203.05-105.46-326.14
					c14.55-135.05,83.46-240.1,193.87-317.55c170.56-119.64,402.13-125.47,565.48-12.93c114.72,79.04,175.27,190.9,190.06,328.89
					c12.38,115.41-12.69,220.65-80.98,315.09c-3.29,4.55-5.52,9.87-10.02,18.06c15.98,1.82,29.41,4.66,42.84,4.68
					c219.66,0.33,439.33,0.93,658.99,0.07c102.59-0.4,166.92-66.44,163.51-175.58c-2.24-71.77-15.07-143.56-27.51-214.57
					c-12.07-68.91-29.74-136.83-44.79-205.23c-1.07-4.85-0.83-9.99-1.32-16.74c88.95-26.83,177.33-53.49,269.6-81.31
					c15.99,78.36,32.29,153.08,46.31,228.22c19.96,107.01,36.39,214.26,33.55,323.97c-5.22,202.3-145.52,374.31-343.28,414.66
					c-35.53,7.25-72.47,10.61-108.76,10.68c-227.71,0.4-455.45,1-683.13-1.87c-122.8-1.54-244.67-15.98-364.17-46.71
					c-11.89-3.06-25.67-1.39-38.11,0.77c-78.26,13.61-155.88,32.72-234.66,41.02c-121.97,12.86-244.59,22.63-367.14,26.12
					c-135.99,3.88-272.23,0.14-408.34-2.1c-64.28-1.05-128.6-5.02-192.72-9.99c-90.91-7.05-182.12-12.81-270.9-36.22
					c-159.16-41.97-252.95-147.81-294.11-303.52c-25.4-96.06-19.14-193.17,0.95-288.99c16.3-77.76,38.44-154.28,57.24-231.53
					c4.17-17.13,11.6-20.01,27.81-14.68c76.31,25.1,152.81,49.67,229.61,73.22c16.57,5.08,19.2,10.88,15.11,27.82
					c-21.21,87.87-43.55,175.66-59.15,264.58c-6.21,35.38-1.71,75.16,7.82,110.24c18.33,67.42,71.75,94.43,137.5,99.38
					c144.91,10.9,289.74,24.74,434.87,30.29c151.32,5.78,302.96,3.87,454.46,3.89C1938.53,2774.79,1979.01,2769.59,2025.34,2766.38z
					 M2389.82,2289.1c-43.72-0.91-79.99,9.8-113.8,28.07c-110.68,59.83-131.63,165.34-72.94,258.61
					c39.45,62.69,103.72,92.3,170.38,116.71c5.43,1.99,13.65,1.06,18.82-1.74c38.39-20.83,79.46-38.41,113.73-64.75
					c60.14-46.23,81.81-112.51,68.55-185.66C2559.43,2356.88,2470,2288.91,2389.82,2289.1z"/>
				<path class="st2" d="M5108.49,1873.57c0-166.18,0.34-332.37-0.43-498.55c-0.1-20.62,4.8-27.81,26.62-27.45
					c79.04,1.29,158.13,0.94,237.18,0.16c17.12-0.17,23.01,4.71,22.98,22.31c-0.43,306.74,0.91,613.49-0.96,920.23
					c-0.69,113.12-8.57,225.82-37.33,336.64c-54.75,210.95-194.33,329.52-400.73,378.8c-85.78,20.48-172.94,27.73-260.85,27.79
					c-161.79,0.11-323.58-0.3-485.37,0.46c-21.4,0.1-29.42-4.85-28.99-27.95c1.43-76.84,1.34-153.74,0.04-230.59
					c-0.37-21.93,7.12-26.68,27.6-26.58c158.13,0.75,316.3,2.48,474.37-0.54c68.98-1.32,138.96-7.26,206.37-21.28
					c123.07-25.6,192.79-106.18,205.6-230.86c7.6-73.99,12.13-148.52,13.3-222.89C5109.99,2140.07,5108.49,2006.81,5108.49,1873.57z
					"/>
				<path class="st2" d="M4462.33,2548.54c-40.27,0-80.54-0.37-120.8,0.21c-13.29,0.19-19.86-3.04-20.76-17.92
					c-3.36-55.4-8.09-110.71-11.95-166.08c-5.89-84.53-11.59-169.08-17.17-253.63c-3.28-49.58-6.02-99.19-9.28-148.77
					c-5.57-84.56-11.46-169.09-17-253.65c-3.34-51.04-6.23-102.1-9.4-153.15c-2.9-46.67-5.58-93.35-9.02-139.98
					c-1.24-16.79,4.79-22.44,21.96-24.21c80.56-8.31,161.02-17.71,241.32-28.2c15.74-2.06,18.73,2.11,19.59,16.25
					c6.98,115.22,14.56,230.41,21.99,345.61c7.34,113.74,14.72,227.47,22.1,341.21c7.28,112.27,14.55,224.55,21.88,336.82
					c2.71,41.55,5.16,83.12,8.61,124.61c1.4,16.82-5.19,21.53-21.25,21.18C4542.88,2547.94,4502.6,2548.54,4462.33,2548.54z"/>
				<path class="st2" d="M2191.61,1535.27c71-68.94,140.07-135.99,207.02-201c65.89,65.65,135.54,135.05,203.96,203.23
					c-66.45,66.29-135.09,134.76-199.99,199.5C2333.31,1670.75,2262.67,1603.21,2191.61,1535.27z"/>
				<path class="st2" d="M3863.74,3475.61c-62.25,62.22-126.17,126.12-187.63,187.56c-62.63-60.22-127.24-122.35-193.98-186.52
					c64.07-66.35,126.64-131.16,187.99-194.69C3736.57,3348.43,3800.98,3412.85,3863.74,3475.61z"/>
				<path class="st2" d="M3179.67,3670.75c-15.21-16.1-31.9-34.33-49.19-51.97c-41.5-42.35-83.18-84.53-125.03-126.52
					c-8.63-8.66-14.26-15.74-3.08-27.24c57.69-59.27,114.88-119.03,172.33-178.53c1.39-1.44,3.76-1.95,11.31-5.68
					c17.51,19.15,35.63,40.16,55.02,59.93c40.49,41.28,81.65,81.91,122.54,122.8c6.9,6.9,14.55,13.44,4.13,23.6
					C3305.94,3547.34,3244.27,3607.65,3179.67,3670.75z"/>
			</g>
		</g>
		<g>
			<path class="st1" d="M14149.11,536.77c29.72,4.86,59.69,8.58,89.13,14.78c225.95,47.56,407.46,243.18,437.77,472.14
				c4.19,31.66,6.47,63.81,6.52,95.74c0.47,323.52,0.2,647.05,0.57,970.57c0.02,13.8-3.94,22.13-15.5,30.33
				c-242.13,171.79-490.92,332.82-754.82,469.62c-284.77,147.62-581.02,264.85-894,337.79c-158.48,36.94-318.77,61.81-481.12,73.99
				c-156.61,11.75-313.22,11.74-469.57-1.15c-440.09-36.26-864.72-134.69-1267.15-320.32c-22.59-10.42-44.28-22.83-66.92-33.14
				c-11.45-5.21-14.64-12.3-14.62-24.55c0.36-260.01,0.27-520.01,0.27-780.02c0-244.57-1.1-489.15,0.36-733.71
				c1.1-183.13,73.98-333.65,216.63-448.66c87.64-70.66,188.8-110.11,301.21-120.05c5.22-0.46,10.33-2.22,15.49-3.37
				C12218.61,536.77,13183.86,536.77,14149.11,536.77z"/>
			<path class="st0" d="M11646.02,2145.79c19.15-1.43,33.72-0.83,47.43-3.96c18.97-4.34,38.18-9.58,55.73-17.78
				c64.94-30.33,130.59-59.52,193.57-93.6c515.01-278.72,1061.71-473.73,1628.35-615.11c181.54-45.3,365.27-81.84,547.78-123.32
				c30.99-7.04,62.63-15.29,90.92-29.19c46.65-22.92,55.3-70.84,23.73-112.17c-19.62-25.68-45.79-40.95-78.1-44.56
				c-78.94-8.83-157.71-2.91-236.22,4.89c-175.91,17.5-349.9,47.87-523.19,82.11c-305.79,60.42-608.86,132.45-909.13,216.11
				c-216.92,60.44-432.19,126.1-639.96,213.91c-95.69,40.44-189.28,85.08-273.54,146.88c-37.59,27.57-70.85,59.07-94.84,99.94
				c-48.18,82.07-23.71,241.05,110.66,268.29C11609.43,2142.32,11630.21,2143.74,11646.02,2145.79z"/>
			<path class="st2" d="M11270.21,4256.73c-18.62-2.65-37.23-5.4-55.86-7.94c-164.83-22.46-295.23-102.54-391.4-237.35
				c-62-86.92-96.54-184.54-100.62-291.74c-2.23-58.71-2.71-117.5-2.85-176.26c-0.37-152.04-0.12-304.09-0.12-456.14
				c0-6.47,0-12.93,0-21.38c5.32,2.15,9.18,3.11,12.4,5.1c209.95,129.64,437.46,216.76,676.49,273.59
				c110.39,26.24,222.42,46.74,334.64,63.7c90.59,13.69,182.43,20.48,273.97,26.11c95.88,5.89,192.07,9.07,288.12,9.08
				c85.96,0.01,172.14-2.99,257.81-9.82c160.25-12.77,317.9-42.42,473.51-82.73c352.62-91.36,686.45-229.88,1006.73-402.12
				c219.99-118.3,430.23-251.79,627.31-405.58c3.12-2.44,6.61-4.4,12.5-8.29c0,8.26,0,13.94,0,19.62
				c0,375.36,0.63,750.73-0.21,1126.09c-0.63,283.81-193.59,500.84-437.22,557.7c-29.81,6.96-60.74,9.15-91.11,13.75
				c-7.5,1.13-14.88,3.05-22.31,4.61C13178.07,4256.73,12224.14,4256.73,11270.21,4256.73z"/>
			<g>
				<path class="st0" d="M11408.2,3357.12c110.38,26.24,222.42,46.74,334.64,63.7c90.59,13.69,182.43,20.48,273.97,26.11
					c95.88,5.89,192.07,9.07,288.12,9.08c85.96,0.01,172.14-2.99,257.81-9.82c52.59-5.73,103.45-11.49,152.93-17.4
					c107.91-15.6,214.73-37.91,320.59-65.34c352.62-91.36,686.44-229.88,1006.73-402.12c219.98-118.3,430.23-251.79,627.31-405.58
					c3.12-2.44,6.61-4.4,12.49-8.28c0,0,0,0,0,0c0.08-148.32,0.16-296.64,0.24-444.96c0.01,13.8-3.94,22.13-15.5,30.33
					c-242.13,171.79-490.92,332.82-754.82,469.62c-284.78,147.62-581.02,264.85-894,337.79c-158.49,36.94-318.77,61.81-481.12,73.99
					c-156.61,11.75-313.22,11.74-469.57-1.15c-440.09-36.26-864.72-134.69-1267.15-320.32c-22.59-10.42-44.28-22.83-66.92-33.14
					c-11.45-5.21-14.64-12.3-14.63-24.55l-0.03,443.34c5.32,2.15,9.18,3.11,12.4,5.1
					C10941.66,3213.17,11169.18,3300.29,11408.2,3357.12z"/>
			</g>
		</g>
	</g>
</g>
</svg>
