<svg width="24" height="24" viewBox="0 0 24 24" fill="none" xmlns="http://www.w3.org/2000/svg">
<path fill-rule="evenodd" clip-rule="evenodd" d="M22.5047 9.59919C24.0752 10.8144 24.0752 13.1854 22.5047 14.4007C17.7585 18.073 12.4587 20.9675 6.80384 22.976L5.77074 23.3428C3.79432 24.0449 1.70668 22.7076 1.43911 20.6675C0.691521 14.967 0.691521 9.03284 1.43911 3.33242C1.70668 1.29222 3.79432 -0.0450009 5.77076 0.656954L6.80384 1.02388C12.4587 3.0323 17.7585 5.92687 22.5047 9.59919ZM21.0512 12.5222C21.3928 12.2578 21.3928 11.7419 21.0512 11.4777C16.5041 7.95927 11.4267 5.1861 6.00897 3.2619L4.97588 2.895C4.46137 2.71226 3.87011 3.06052 3.79395 3.64125C3.07325 9.13654 3.07325 14.8633 3.79394 20.3586C3.87011 20.9393 4.46137 21.2875 4.97588 21.1048L6.00897 20.7379C11.4267 18.8137 16.5041 16.0405 21.0512 12.5222Z" fill="#6500a3"/>
</svg>
